<svg width="104" height="104" viewBox="0 0 104 104" fill="none" xmlns="http://www.w3.org/2000/svg">
<g id="mingcute:code-fill" clip-path="url(#clip0_56_455)">
<g id="Group">
<path id="Vector" d="M63.3533 11.5353C64.1758 11.7655 64.9449 12.1554 65.6166 12.6829C66.2883 13.2105 66.8495 13.8652 67.268 14.6097C67.6866 15.3542 67.9543 16.1739 68.0558 17.0219C68.1574 17.87 68.0909 18.7297 67.86 19.552L48.659 87.9623C48.1935 89.6225 47.0877 91.0297 45.5847 91.8744C44.0816 92.7192 42.3046 92.9323 40.6445 92.4668C38.9844 92.0014 37.5771 90.8955 36.7324 89.3925C35.8876 87.8895 35.6745 86.1124 36.14 84.4523L55.341 16.0333C55.5716 15.2112 55.9619 14.4426 56.4896 13.7714C57.0173 13.1001 57.6721 12.5394 58.4166 12.1213C59.161 11.7032 59.9806 11.4359 60.8284 11.3346C61.6762 11.2333 62.5356 11.3 63.3577 11.531L63.3533 11.5353ZM32.76 29.0203C33.9772 30.2391 34.6609 31.8912 34.6609 33.6137C34.6609 35.3362 33.9772 36.9882 32.76 38.207L18.98 52L32.7687 65.7887C33.9875 67.008 34.6719 68.6616 34.6715 70.3857C34.6711 72.1097 33.9859 73.763 32.7665 74.9818C31.5471 76.2006 29.8935 76.8851 28.1695 76.8847C26.4454 76.8843 24.7921 76.199 23.5733 74.9797L5.18699 56.5933C3.96975 55.3746 3.28604 53.7225 3.28604 52C3.28604 50.2775 3.96975 48.6254 5.18699 47.4067L23.569 29.0203C24.1726 28.4163 24.8894 27.9372 25.6783 27.6102C26.4671 27.2833 27.3127 27.1151 28.1667 27.1151C29.0206 27.1151 29.8662 27.2833 30.6551 27.6102C31.4439 27.9372 32.1564 28.4163 32.76 29.0203ZM71.24 38.207C70.6014 37.6119 70.0891 36.8943 69.7339 36.097C69.3786 35.2997 69.1876 34.439 69.1722 33.5662C69.1568 32.6934 69.3173 31.8265 69.6443 31.0172C69.9712 30.2078 70.4578 29.4726 71.075 28.8553C71.6922 28.2381 72.4274 27.7515 73.2368 27.4246C74.0462 27.0977 74.9131 26.9371 75.7859 26.9525C76.6586 26.9679 77.5193 27.159 78.3167 27.5142C79.114 27.8695 79.8316 28.3817 80.4267 29.0203L98.813 47.4023C100.032 48.6213 100.716 50.2743 100.716 51.9978C100.716 53.7214 100.032 55.3744 98.813 56.5933L80.431 74.9797C79.8275 75.5834 79.111 76.0624 78.3224 76.3893C77.5338 76.7162 76.6885 76.8845 75.8349 76.8847C74.9812 76.8849 74.1358 76.717 73.3471 76.3905C72.5583 76.064 71.8416 75.5853 71.2378 74.9818C70.6341 74.3783 70.1551 73.6618 69.8282 72.8732C69.5013 72.0846 69.333 71.2394 69.3328 70.3857C69.3326 69.532 69.5005 68.6867 69.827 67.8979C70.1535 67.1092 70.6322 66.3924 71.2357 65.7887L85.0243 52L71.24 38.207Z" fill="white"/>
</g>
</g>
<defs>
<clipPath id="clip0_56_455">
<rect width="104" height="104" fill="white"/>
</clipPath>
</defs>
</svg>
