<svg width="111" height="111" viewBox="0 0 111 111" fill="none" xmlns="http://www.w3.org/2000/svg">
<g id="fluent:design-ideas-20-filled">
<path id="Vector" d="M49.95 24.975C45.7931 24.975 41.9469 26.2792 38.7834 28.4992C38.5781 25.3191 37.851 22.5607 36.5135 20.1187C40.7382 17.7808 45.4999 16.5856 50.328 16.6514C55.1561 16.7172 59.8835 18.0416 64.043 20.4938C68.2025 22.946 71.6502 26.4411 74.0454 30.6338C76.4405 34.8264 77.7002 39.5714 77.7 44.4H90.193C92.768 44.4 95.2376 45.4225 97.0589 47.2428C98.8801 49.063 99.9041 51.532 99.9055 54.1069V84.6319C99.9063 85.9083 99.6554 87.1724 99.1673 88.3517C98.6792 89.5311 97.9634 90.6027 97.0608 91.5053C96.1583 92.4078 95.0867 93.1236 93.9073 93.6117C92.7279 94.0999 91.4639 94.3507 90.1875 94.35H59.6625C57.0866 94.35 54.6162 93.3267 52.7947 91.5053C50.9733 89.6838 49.95 87.2134 49.95 84.6375V72.15C46.0893 72.1549 42.2704 71.3514 38.739 69.7912C38.8112 67.9042 38.85 65.9229 38.85 63.825V63.4809C38.85 62.554 38.85 61.4884 38.8334 60.334C42.0928 62.6111 45.974 63.8299 49.95 63.825V54.1125C49.95 48.7512 54.3012 44.4 59.6625 44.4H69.375C69.375 39.2482 67.3284 34.3073 63.6856 30.6644C60.0427 27.0216 55.1018 24.975 49.95 24.975ZM76.4291 52.725C75.0839 56.9867 72.7318 60.8617 69.5717 64.0217C66.4117 67.1818 62.5367 69.5339 58.275 70.879V84.6375C58.275 85.4034 58.8966 86.025 59.6625 86.025H90.1875C90.5555 86.025 90.9084 85.8788 91.1686 85.6186C91.4288 85.3584 91.575 85.0055 91.575 84.6375V54.1125C91.575 53.7445 91.4288 53.3916 91.1686 53.1314C90.9084 52.8712 90.5555 52.725 90.1875 52.725H76.4291ZM67.5047 52.725H59.6625C59.2945 52.725 58.9416 52.8712 58.6814 53.1314C58.4212 53.3916 58.275 53.7445 58.275 54.1125V61.9546C62.3201 60.0291 65.5791 56.7701 67.5047 52.725ZM25.4246 11.7937C25.8852 12.1967 26.1998 12.7406 26.3192 13.3409C26.4387 13.9411 26.3563 14.564 26.085 15.1126C26.038 15.275 26.0137 15.4431 26.0129 15.6121C26.0129 15.9618 26.1017 16.6278 26.9397 17.4603C27.3449 17.8654 27.6557 18.154 27.9942 18.4704C28.2717 18.7257 28.5659 18.9921 28.9377 19.3584C29.6592 20.0466 30.4196 20.8569 31.1022 21.8725C32.5175 23.9982 33.3 26.6566 33.3 30.525C33.3 35.2591 31.5462 39.294 28.8101 41.7693L29.1653 42.18C30.7193 44.0892 31.6239 46.5645 32.19 49.0065C33.3 53.835 33.3 59.6403 33.3 63.6862V63.825C33.3 79.2928 31.1966 88.0674 28.8822 93.0846C27.7167 95.6098 26.4791 97.2193 25.4079 98.2294C24.9724 98.6472 24.4922 99.0158 23.976 99.3283C23.7396 99.4706 23.4929 99.595 23.2379 99.7002C23.2379 99.7002 22.6107 99.9 22.2 99.9C21.7893 99.9 21.1622 99.7002 21.1622 99.7002C20.9043 99.6011 20.6571 99.4765 20.424 99.3283C19.9078 99.0158 19.4276 98.6472 18.9921 98.2294C17.921 97.2138 16.6833 95.6098 15.5178 93.0846C13.2035 88.0674 11.1 79.2928 11.1 63.825V63.6862C11.1 59.6347 11.1 53.835 12.21 49.0065C12.7761 46.5645 13.6808 44.0892 15.2348 42.18C15.3458 42.0412 15.4679 41.9025 15.59 41.7693C12.8538 39.294 11.1 35.2591 11.1 30.525C11.1 28.7157 11.5829 26.5567 12.2489 24.5643C12.9149 22.5663 13.8473 20.5017 14.924 18.8367C16.206 16.6722 18.0098 14.8573 19.4084 13.6363C20.1751 12.962 20.9753 12.3266 21.806 11.7327L22.0502 11.5662C22.5591 11.227 23.1658 11.0654 23.776 11.1065C24.3863 11.1477 24.9658 11.3893 25.4246 11.7937Z" fill="white"/>
</g>
</svg>
