<svg xmlns="http://www.w3.org/2000/svg" viewBox="0 0 320 240" fill="none" aria-hidden="true">
  <rect width="320" height="240" rx="16" fill="#0f1114"/>
  <circle cx="160" cy="118" r="8" fill="#7dd3fc"/>
  <circle cx="96" cy="72" r="6" fill="#c4b5fd"/>
  <circle cx="224" cy="72" r="6" fill="#c4b5fd"/>
  <circle cx="64" cy="150" r="6" fill="#86efac"/>
  <circle cx="256" cy="150" r="6" fill="#86efac"/>
  <circle cx="160" cy="182" r="6" fill="#fde047"/>
  <path stroke="#3f3f46" stroke-width="2" d="M160 110v-30M160 126v30M152 118h-40M168 118h40M104 78l-12 24M216 78l12 24M104 158l-12-24M216 158l12-24"/>
  <path stroke="#52525b" stroke-width="1.5" opacity="0.7" d="M96 72h128M64 150h192M160 72v110"/>
  <text x="160" y="222" text-anchor="middle" fill="#a1a1aa" font-family="system-ui,sans-serif" font-size="11" letter-spacing="0.12em">AI · MODELS · EDGE</text>
</svg>
