<svg width="97" height="97" viewBox="0 0 97 97" fill="none" xmlns="http://www.w3.org/2000/svg">
<g id="lucide:network">
<g id="Group">
<path id="Vector" d="M84.875 64.6667H68.7084C66.4762 64.6667 64.6667 66.4763 64.6667 68.7084V84.8751C64.6667 87.1072 66.4762 88.9167 68.7084 88.9167H84.875C87.1072 88.9167 88.9167 87.1072 88.9167 84.8751V68.7084C88.9167 66.4763 87.1072 64.6667 84.875 64.6667Z" stroke="white" stroke-width="8" stroke-linecap="round" stroke-linejoin="round"/>
<path id="Vector_2" d="M28.2917 64.6667H12.125C9.89286 64.6667 8.08334 66.4763 8.08334 68.7084V84.8751C8.08334 87.1072 9.89286 88.9167 12.125 88.9167H28.2917C30.5238 88.9167 32.3333 87.1072 32.3333 84.8751V68.7084C32.3333 66.4763 30.5238 64.6667 28.2917 64.6667Z" stroke="white" stroke-width="8" stroke-linecap="round" stroke-linejoin="round"/>
<path id="Vector_3" d="M56.5833 8.08337H40.4167C38.1845 8.08337 36.375 9.89289 36.375 12.125V28.2917C36.375 30.5239 38.1845 32.3334 40.4167 32.3334H56.5833C58.8155 32.3334 60.625 30.5239 60.625 28.2917V12.125C60.625 9.89289 58.8155 8.08337 56.5833 8.08337Z" stroke="white" stroke-width="8" stroke-linecap="round" stroke-linejoin="round"/>
<path id="Vector_4" d="M20.2083 64.6667V52.5417C20.2083 51.4698 20.6342 50.4418 21.3921 49.6838C22.1501 48.9259 23.1781 48.5 24.25 48.5H72.75C73.8219 48.5 74.8499 48.9259 75.6079 49.6838C76.3659 50.4418 76.7917 51.4698 76.7917 52.5417V64.6667M48.5 48.5V32.3334" stroke="white" stroke-width="8" stroke-linecap="round" stroke-linejoin="round"/>
</g>
</g>
</svg>
