<svg width="107" height="107" viewBox="0 0 107 107" fill="none" xmlns="http://www.w3.org/2000/svg">
<g id="heroicons:paint-brush-solid">
<path id="Vector" fill-rule="evenodd" clip-rule="evenodd" d="M91.8372 6.6875C90.1609 6.6875 88.5247 7.18238 87.1337 8.11417L64.4853 23.2056C58.8022 26.9956 53.6052 31.468 49.0105 36.5227C58.4483 40.9591 66.0408 48.5517 70.4773 57.9895C75.5323 53.3934 80.0047 48.1949 83.7944 42.5102L98.8903 19.8663C99.7403 18.5895 100.228 17.106 100.302 15.5739C100.375 14.0418 100.032 12.5184 99.308 11.166C98.5842 9.81363 97.5072 8.68289 96.1916 7.89422C94.876 7.10556 93.3711 6.68851 91.8372 6.6875ZM54.833 69.2156C57.7557 67.5924 60.5784 65.7955 63.286 63.8344C61.4866 59.2829 58.7726 55.149 55.3118 51.6882C51.851 48.2274 47.7171 45.5134 43.1656 43.714C41.2046 46.42 39.4076 49.2413 37.7844 52.1625L36.5449 54.3917C40.3619 55.4898 43.8374 57.5395 46.6455 60.3484C49.4536 63.1572 51.5023 66.6333 52.5994 70.4506L54.8375 69.2112L54.833 69.2156ZM30.0937 60.1875C25.6597 60.1875 21.4072 61.9489 18.2718 65.0843C15.1364 68.2197 13.375 72.4722 13.375 76.9062C13.3752 77.8226 13.1872 78.7291 12.8225 79.5697C12.4578 80.4103 11.9242 81.167 11.255 81.7928C10.5857 82.4186 9.79489 82.9002 8.93173 83.2077C8.06857 83.5152 7.15142 83.6421 6.2372 83.5804C5.63271 83.5397 5.02854 83.6641 4.48925 83.9402C3.94995 84.2163 3.4958 84.6337 3.17532 85.1478C2.85483 85.662 2.68006 86.2535 2.66968 86.8593C2.6593 87.4651 2.81369 88.0623 3.11637 88.5871C5.68834 93.0551 9.66349 96.549 14.4246 98.5263C19.1858 100.504 24.4666 100.854 29.4471 99.5221C34.4276 98.1906 38.8291 95.252 41.9683 91.1626C45.1076 87.0731 46.8089 82.0617 46.808 76.9062C46.808 74.7107 46.3756 72.5367 45.5354 70.5083C44.6952 68.4799 43.4637 66.6368 41.9112 65.0843C40.3587 63.5318 38.5157 62.3003 36.4873 61.4601C34.4589 60.6199 32.2893 60.1875 30.0937 60.1875Z" fill="white"/>
</g>
</svg>
