<svg xmlns="http://www.w3.org/2000/svg" viewBox="0 0 600 340" fill="none" aria-hidden="true">
  <rect width="600" height="340" rx="18" fill="#0f172a"/>
  <!-- Left: Passport / ID card -->
  <rect x="40" y="80" width="180" height="190" rx="14" fill="#1e3a5f" stroke="#38bdf8" stroke-width="1.5"/>
  <rect x="58" y="98" width="60" height="60" rx="8" fill="#0ea5e9" opacity="0.3"/>
  <circle cx="88" cy="120" r="14" fill="#38bdf8" opacity="0.6"/>
  <rect x="58" y="170" width="144" height="8" rx="3" fill="#7dd3fc" opacity="0.5"/>
  <rect x="58" y="184" width="100" height="8" rx="3" fill="#93c5fd" opacity="0.4"/>
  <rect x="58" y="198" width="120" height="8" rx="3" fill="#7dd3fc" opacity="0.3"/>
  <!-- QR code area -->
  <rect x="130" y="98" width="58" height="58" rx="6" fill="#1e3a5f" stroke="#38bdf8" stroke-width="1"/>
  <rect x="137" y="105" width="8" height="8" fill="#38bdf8" opacity="0.8"/>
  <rect x="137" y="116" width="8" height="8" fill="#38bdf8" opacity="0.8"/>
  <rect x="148" y="105" width="8" height="8" fill="#38bdf8" opacity="0.5"/>
  <rect x="159" y="105" width="8" height="8" fill="#38bdf8" opacity="0.8"/>
  <rect x="159" y="116" width="8" height="8" fill="#38bdf8" opacity="0.6"/>
  <rect x="148" y="127" width="8" height="8" fill="#38bdf8" opacity="0.8"/>
  <rect x="159" y="127" width="8" height="8" fill="#38bdf8" opacity="0.4"/>
  <rect x="137" y="127" width="8" height="8" fill="#38bdf8" opacity="0.6"/>
  <text x="130" y="232" fill="#7dd3fc" font-family="system-ui,sans-serif" font-size="9" letter-spacing="0.06em">HEALTH PASSPORT</text>
  <text x="130" y="248" fill="#4ade80" font-family="system-ui,sans-serif" font-size="8">Ď Universal Patient ID</text>
  <!-- Centre: Edge RAG device -->
  <rect x="255" y="110" width="120" height="130" rx="12" fill="#1e293b" stroke="#a78bfa" stroke-width="1.5"/>
  <text x="315" y="135" text-anchor="middle" fill="#c4b5fd" font-family="system-ui,sans-serif" font-size="10" font-weight="bold">EDGE RAG</text>
  <text x="315" y="148" text-anchor="middle" fill="#94a3b8" font-family="system-ui,sans-serif" font-size="8">Per-Clinic Node</text>
  <rect x="270" y="158" width="90" height="6" rx="2" fill="#7c3aed" opacity="0.6"/>
  <rect x="270" y="168" width="72" height="6" rx="2" fill="#a78bfa" opacity="0.5"/>
  <rect x="270" y="178" width="80" height="6" rx="2" fill="#7c3aed" opacity="0.45"/>
  <text x="315" y="205" text-anchor="middle" fill="#86efac" font-family="system-ui,sans-serif" font-size="8">Medical School Data</text>
  <text x="315" y="217" text-anchor="middle" fill="#86efac" font-family="system-ui,sans-serif" font-size="8">Clinical Guidelines</text>
  <text x="315" y="229" text-anchor="middle" fill="#86efac" font-family="system-ui,sans-serif" font-size="8">Drug Interactions</text>
  <!-- Connection lines -->
  <path stroke="#a78bfa" stroke-width="1.5" stroke-dasharray="5 4" d="M220 175 Q237 175 255 175"/>
  <path stroke="#a78bfa" stroke-width="1.5" stroke-dasharray="5 4" d="M375 175 Q410 175 430 140"/>
  <!-- Right: Clinical display -->
  <rect x="420" y="80" width="150" height="100" rx="12" fill="#1e293b" stroke="#34d399" stroke-width="1.5"/>
  <text x="495" y="104" text-anchor="middle" fill="#6ee7b7" font-family="system-ui,sans-serif" font-size="10" font-weight="bold">Patient Record</text>
  <rect x="436" y="112" width="118" height="6" rx="2" fill="#34d399" opacity="0.5"/>
  <rect x="436" y="122" width="90" height="6" rx="2" fill="#10b981" opacity="0.4"/>
  <rect x="436" y="132" width="104" height="6" rx="2" fill="#34d399" opacity="0.35"/>
  <rect x="436" y="142" width="76" height="6" rx="2" fill="#6ee7b7" opacity="0.5"/>
  <text x="495" y="168" text-anchor="middle" fill="#4ade80" font-family="system-ui,sans-serif" font-size="8">Ď Secure · Offline capable</text>
  <!-- Clinics row -->
  <rect x="420" y="210" width="40" height="36" rx="6" fill="#0f2d44" stroke="#38bdf8" stroke-width="1"/>
  <rect x="470" y="210" width="40" height="36" rx="6" fill="#0f2d44" stroke="#38bdf8" stroke-width="1"/>
  <rect x="520" y="210" width="40" height="36" rx="6" fill="#0f2d44" stroke="#38bdf8" stroke-width="1"/>
  <text x="440" y="234" text-anchor="middle" fill="#7dd3fc" font-family="system-ui,sans-serif" font-size="7">Clinic A</text>
  <text x="490" y="234" text-anchor="middle" fill="#7dd3fc" font-family="system-ui,sans-serif" font-size="7">Clinic B</text>
  <text x="540" y="234" text-anchor="middle" fill="#7dd3fc" font-family="system-ui,sans-serif" font-size="7">Clinic C</text>
  <!-- Bottom label -->
  <text x="300" y="316" text-anchor="middle" fill="#64748b" font-family="system-ui,sans-serif" font-size="11" letter-spacing="0.06em">RAG · EDGE INFERENCE · UNIVERSAL ID</text>
</svg>
