<svg xmlns="http://www.w3.org/2000/svg" viewBox="0 0 600 340" fill="none" aria-hidden="true">
  <rect width="600" height="340" rx="18" fill="#0a2a14"/>
  <!-- Ground -->
  <rect x="0" y="240" width="600" height="100" rx="0" fill="#0d3b1c"/>
  <!-- Crops -->
  <g fill="#16a34a">
    <rect x="60" y="180" width="12" height="70" rx="3"/>
    <ellipse cx="66" cy="175" rx="20" ry="28"/>
    <rect x="110" y="190" width="12" height="60" rx="3"/>
    <ellipse cx="116" cy="185" rx="16" ry="22"/>
    <rect x="155" y="175" width="12" height="70" rx="3"/>
    <ellipse cx="161" cy="170" rx="21" ry="30"/>
    <rect x="200" y="185" width="12" height="62" rx="3"/>
    <ellipse cx="206" cy="180" rx="17" ry="24"/>
    <rect x="248" y="178" width="12" height="68" rx="3"/>
    <ellipse cx="254" cy="173" rx="20" ry="28"/>
  </g>
  <!-- IoT sensor hub -->
  <rect x="360" y="150" width="110" height="80" rx="12" fill="#14532d" stroke="#22c55e" stroke-width="1.5"/>
  <circle cx="415" cy="178" r="12" fill="#4ade80" opacity="0.85"/>
  <path stroke="#86efac" stroke-width="1.5" d="M392 195h46M392 205h36"/>
  <text x="415" y="242" text-anchor="middle" fill="#86efac" font-family="system-ui,sans-serif" font-size="10" letter-spacing="0.05em">SENSOR NODE</text>
  <!-- Data lines -->
  <path stroke="#22c55e" stroke-width="1" stroke-dasharray="4 5" opacity="0.7" d="M470 180 Q520 140 540 100"/>
  <path stroke="#22c55e" stroke-width="1" stroke-dasharray="4 5" opacity="0.7" d="M470 200 Q530 220 540 260"/>
  <!-- Cloud brain -->
  <circle cx="540" cy="80" r="32" fill="#166534" stroke="#4ade80" stroke-width="1.5"/>
  <text x="540" y="75" text-anchor="middle" fill="#bbf7d0" font-family="system-ui,sans-serif" font-size="9" font-weight="bold">LLM</text>
  <text x="540" y="88" text-anchor="middle" fill="#86efac" font-family="system-ui,sans-serif" font-size="8">AGENT</text>
  <!-- WhatsApp badge -->
  <rect x="488" y="250" width="80" height="28" rx="8" fill="#16a34a"/>
  <text x="528" y="269" text-anchor="middle" fill="#fff" font-family="system-ui,sans-serif" font-size="10" font-weight="bold">WhatsApp</text>
  <!-- Sun -->
  <circle cx="80" cy="60" r="26" fill="#fde047" opacity="0.75"/>
  <path stroke="#fde047" stroke-width="2.5" opacity="0.5" d="M80 24v12M80 84v12M44 60h-12M128 60h12M54 34l8 8M106 86l8 8M106 34l-8 8M54 86l-8 8"/>
  <!-- Award badge -->
  <rect x="340" y="24" width="210" height="36" rx="8" fill="#1e3a5f" opacity="0.95"/>
  <circle cx="362" cy="42" r="9" fill="#fde047" stroke="#f59e0b" stroke-width="1"/>
  <text x="374" y="39" fill="#fde047" font-family="system-ui,sans-serif" font-size="9" font-weight="bold">Google AI Competition</text>
  <text x="374" y="52" fill="#93c5fd" font-family="system-ui,sans-serif" font-size="8">Shortlisted · Gemini API Challenge</text>
</svg>
